# xmcd
#
# Track frame offsets: 
#        150
#        17512
#        38335
#        57816
#        72070
#        88737
#        103991
#        117949
#        137305
#        153376
#        171915
#
# Disc length: 2559 seconds
#
# Revision: 1
# Processed by: cddbd v1.5.2PL0 Copyright (c) Steve Scherf et al.
# Submitted via: ExactAudioCopy v0.99pb5
#
DISCID=8209fd0b
DTITLE=Terri Clark - The Long Way Home
DYEAR=2009
DGENRE=Country
TTITLE0=Gypsy Boots
TTITLE1=If You Want Fire
TTITLE2=A Million Ways to Run
TTITLE3=What Happens in Vegas (Follows You Home)
TTITLE4=Merry Go Round
TTITLE5=The One You Love (feat. Vince Gill)
TTITLE6=Poor Girls Dream
TTITLE7=If I Could Be You
TTITLE8=Tough with Me
TTITLE9=You Tell Me (Duet with Johnny Reid)
TTITLE10=Gypsy Boots (Bonus: Acoustic Demo Version)
EXTD=YEAR: 2009
EXTT0=
EXTT1=
EXTT2=
EXTT3=
EXTT4=
EXTT5=
EXTT6=
EXTT7=
EXTT8=
EXTT9=
EXTT10=
PLAYORDER=
